<svg xmlns="http://www.w3.org/2000/svg" viewBox="0 0 64 64"><title>icon-solar-panel</title><circle cx="32" cy="32" r="32" fill="#005984"/><circle cx="19.28" cy="23.49" r="4.54" fill="#fff"/><path d="M17.41,17.54a0.24,0.24,0,0,0,0,.2l0,0.06a0.24,0.24,0,0,0,.17.07h3.3a0.24,0.24,0,0,0,.22-0.32l-1.68-4.4a0.24,0.24,0,0,0-.39,0Z" fill="#fff"/><path d="M23.5,18.86a0.24,0.24,0,0,0-.17.11,0.22,0.22,0,0,0,0,.07,0.24,0.24,0,0,0,0,.18L25,22.07a0.24,0.24,0,0,0,.39,0l3-3.65a0.24,0.24,0,0,0-.2-0.34Z" fill="#fff"/><path d="M25.37,24.85a0.24,0.24,0,0,0-.18-0.09H25.12a0.24,0.24,0,0,0-.14.11l-1.65,2.85a0.24,0.24,0,0,0,.17.35l4.65,0.75a0.24,0.24,0,0,0,.2-0.34Z" fill="#fff"/><path d="M21.18,29.47a0.24,0.24,0,0,0,0-.2l0-.06A0.24,0.24,0,0,0,21,29.14h-3.3a0.24,0.24,0,0,0-.22.32l1.68,4.4a0.24,0.24,0,0,0,.39,0Z" fill="#fff"/><path d="M15.05,28.08A0.24,0.24,0,0,0,15.22,28a0.22,0.22,0,0,0,0-.07,0.24,0.24,0,0,0,0-.18l-1.65-2.85a0.24,0.24,0,0,0-.39,0l-3,3.65a0.24,0.24,0,0,0,.2.34Z" fill="#fff"/><path d="M13.15,22.14a0.24,0.24,0,0,0,.18.09H13.4a0.24,0.24,0,0,0,.14-0.11l1.65-2.85A0.24,0.24,0,0,0,15,18.91l-4.65-.75a0.24,0.24,0,0,0-.2.34Z" fill="#fff"/><polygon points="45.2 39.78 43.06 44.58 40.67 44.58 42.81 39.78 45.2 39.78" fill="none"/><polygon points="36.6 39.78 34.46 44.58 32.08 44.58 34.21 39.78 36.6 39.78" fill="none"/><polygon points="28 39.78 25.87 44.58 23.48 44.58 25.61 39.78 28 39.78" fill="none"/><path d="M47.68,34.19a1,1,0,0,1,.87-0.57h4.12A0.89,0.89,0,0,1,53.54,35L52,38.34H45.83Z" fill="#fff"/><polygon points="45.2 39.78 51.4 39.78 49.27 44.58 43.06 44.58 45.2 39.78" fill="#fff"/><path d="M46.75,50.25a1,1,0,0,1-.87.57H41.76a0.89,0.89,0,0,1-.87-1.34L42.42,46h6.21Z" fill="#fff"/><path d="M21.89,34.19a1,1,0,0,1,.87-0.57h4.12A0.89,0.89,0,0,1,27.75,35l-1.5,3.38H20Z" fill="#fff"/><path d="M21,50.25a1,1,0,0,1-.87.57H16a0.89,0.89,0,0,1-.87-1.34L16.63,46h6.21Z" fill="#fff"/><polygon points="23.48 44.58 17.27 44.58 19.4 39.78 25.61 39.78 23.48 44.58" fill="#fff"/><path d="M29.56,50.25a1,1,0,0,1-.87.57H24.57a0.89,0.89,0,0,1-.87-1.34L25.23,46h6.21Z" fill="#fff"/><polygon points="34.21 39.78 32.08 44.58 25.87 44.58 28 39.78 34.21 39.78" fill="#fff"/><path d="M30.48,34.19a1,1,0,0,1,.87-0.57h4.12A0.89,0.89,0,0,1,36.35,35l-1.5,3.38H28.64Z" fill="#fff"/><path d="M38.15,50.25a1,1,0,0,1-.87.57H33.16a0.89,0.89,0,0,1-.87-1.34L33.83,46H40Z" fill="#fff"/><polygon points="42.81 39.78 40.67 44.58 34.46 44.58 36.6 39.78 42.81 39.78" fill="#fff"/><path d="M39.08,34.19A1,1,0,0,1,40,33.62h4.12A0.89,0.89,0,0,1,44.95,35l-1.5,3.38H37.23Z" fill="#fff"/></svg>